<?xml version="1.0" encoding="utf-8"?>
<!-- Svg Vector Icons : http://www.onlinewebfonts.com/icon -->
<!DOCTYPE svg PUBLIC "-//W3C//DTD SVG 1.1//EN" "http://www.w3.org/Graphics/SVG/1.1/DTD/svg11.dtd">
<svg version="1.1" xmlns="http://www.w3.org/2000/svg" xmlns:xlink="http://www.w3.org/1999/xlink" x="0px" y="0px" viewBox="0 0 1000 1000" enable-background="new 0 0 1000 1000" xml:space="preserve">
<metadata> Svg Vector Icons : http://www.onlinewebfonts.com/icon </metadata>
<g><path d="M937.5,149.5H715.6L650.9,33.1c-9.3-16.6-26.8-27-45.9-27H395c-19.1,0-36.6,10.3-45.9,27l-64.7,116.3H62.5C33.5,149.5,10,173,10,202s23.5,52.5,52.5,52.5h38.1l67.1,691.9c2.6,26.9,25.2,47.4,52.3,47.4h560c27,0,49.6-20.5,52.3-47.4l67.1-691.9h38.1c29,0,52.5-23.5,52.5-52.5S966.5,149.5,937.5,149.5z M425.9,111.2h148.3l21.3,38.3H404.6L425.9,111.2z M732.3,888.8H267.7l-61.5-634.4h587.7L732.3,888.8z"/><path d="M342.6,764.3c1.3,28.2,24.5,50.1,52.4,50.1c0.8,0,1.6,0,2.4-0.1c29-1.3,51.4-25.9,50.1-54.8l-17.5-385c-1.3-29-25.9-51.4-54.8-50.1c-29,1.3-51.4,25.9-50.1,54.8L342.6,764.3z"/><path d="M602.6,814.4c0.8,0,1.6,0.1,2.4,0.1c27.9,0,51.1-22,52.4-50.1l17.5-385c1.3-29-21.1-53.5-50.1-54.8c-29-1.3-53.5,21.1-54.8,50.1l-17.5,385C551.2,788.5,573.7,813.1,602.6,814.4z"/></g>
</svg>