<?xml version="1.0" encoding="UTF-8" standalone="no"?>
<svg
   xmlns="http://www.w3.org/2000/svg"
   viewBox="0 -256 1792 1792"
   version="1.1"
   width="100%"
   height="100%"
   >

  <g
     transform="matrix(1,0,0,-1,113.89831,1346.1695)"
     >
    <path
       d="M 1536,640 Q 1536,484 1475,342 1414,200 1311,97 1208,-6 1066,-67 924,-128 768,-128 612,-128 470,-67 328,-6 225,97 122,200 61,342 0,484 0,640 0,822 80.5,983 161,1144 307,1253 q 43,32 95.5,25 52.5,-7 83.5,-50 32,-42 24.5,-94.5 Q 503,1081 461,1049 363,975 309.5,868 256,761 256,640 256,536 296.5,441.5 337,347 406,278 475,209 569.5,168.5 664,128 768,128 872,128 966.5,168.5 1061,209 1130,278 q 69,69 109.5,163.5 40.5,94.5 40.5,198.5 0,121 -53.5,228 -53.5,107 -151.5,181 -42,32 -49.5,84.5 -7.5,52.5 24.5,94.5 31,43 84,50 53,7 95,-25 146,-109 226.5,-270 Q 1536,822 1536,640 z M 896,1408 V 768 q 0,-52 -38,-90 -38,-38 -90,-38 -52,0 -90,38 -38,38 -38,90 v 640 q 0,52 38,90 38,38 90,38 52,0 90,-38 38,-38 38,-90 z"
       style="fill:currentColor" />
  </g>
</svg>