<?xml version="1.0" ?>
<!DOCTYPE svg  PUBLIC '-//W3C//DTD SVG 1.1//EN'  'http://www.w3.org/Graphics/SVG/1.1/DTD/svg11.dtd'>
<svg
	height="100%"
	width="100%"
	viewBox="0 0 58 58"
	xmlns="http://www.w3.org/2000/svg"
	xmlns:xlink="http://www.w3.org/1999/xlink"
	>
	<path d="M 23.517570,23.955490 L 23.517570,9.6543821 C 23.517570,7.6537896 24.064606,6.0283084 25.158681,4.7779382 C 26.252754,3.4963088 27.815717,2.8554941 29.847569,2.8554941 C 31.879420,2.8554941 33.442382,3.4963088 34.536457,4.7779382 C 35.661790,6.0283084 36.224456,7.6537896 36.224456,9.6543821 L 36.224456,23.955490 L 50.338010,23.955490 C 52.401120,23.955490 54.026602,24.518157 55.214453,25.643490 C 56.433564,26.737564 57.043119,28.284897 57.043119,30.285490 C 57.043119,32.317341 56.433564,33.895933 55.214453,35.021266 C 54.026602,36.146599 52.401120,36.709266 50.338010,36.709266 L 36.224456,36.709266 L 36.224456,50.963485 C 36.224456,52.995337 35.661790,54.636448 34.536457,55.886818 C 33.411124,57.137188 31.848161,57.762373 29.847569,57.762373 C 27.846976,57.762373 26.284014,57.137188 25.158681,55.886818 C 24.064606,54.636448 23.517570,52.995337 23.517570,50.963485 L 23.517570,36.709266 L 9.4040164,36.709266 C 7.4034241,36.709266 5.7779429,36.099711 4.5275727,34.880600 C 3.3084618,33.630229 2.6989064,32.098526 2.6989064,30.285490 C 2.6989064,28.284897 3.2928323,26.737564 4.4806839,25.643490 C 5.6997948,24.518157 7.3409056,23.955490 9.4040164,23.955490 L 23.517570,23.955490 z "/>
</svg>
