<!--?xml version="1.0" standalone="no"?-->

<svg
	version="1.0"
	xmlns="http://www.w3.org/2000/svg"
	width="100%"
	height="100%"
	viewBox="40 -3 220 220" preserveAspectRatio="xMidYMid meet">
<g transform="translate(0.000000,214.000000) scale(0.100000,-0.100000)" fill="#030303" stroke="none">
<path class="node" id="node1" d="M1315 1965 c-118 -22 -269 -87 -370 -159 -163 -117 -306 -321 -353
-506 -38 -146 -47 -243 -33 -344 48 -337 221 -591 504 -737 148 -76 259 -103
432 -103 169 0 279 26 422 97 228 115 406 329 472 568 31 109 31 109 -140 109
l-140 0 -15 -38 c-56 -146 -142 -254 -263 -334 -93 -61 -180 -88 -301 -95
-309 -17 -579 181 -651 477 -19 76 -16 231 5 310 46 172 173 325 331 400 88
42 198 69 280 69 124 0 297 -61 386 -137 l40 -35 -95 -97 c-104 -105 -113
-126 -75 -174 l20 -26 309 0 309 0 20 26 c20 26 21 38 21 319 0 281 -1 293
-21 319 -15 19 -30 26 -56 26 -31 0 -46 -11 -122 -85 -48 -47 -90 -85 -94 -85
-3 0 -21 13 -39 28 -109 95 -267 172 -413 203 -105 22 -265 24 -370 4z"></path>
</g>
<g transform="translate(0.000000,214.000000) scale(0.100000,-0.100000)" fill="#A0A0A0" stroke="none">

</g>
</svg>