<?xml version="1.0" encoding="UTF-8" standalone="no"?>
<svg
   xmlns="http://www.w3.org/2000/svg"
   viewBox="125 -125 1550	1550"
   version="1.1"
   width="100%"
   height="100%"
   >
  <g
     transform="matrix(1,0,0,-1,129.08475,1270.2373)"
     >
    <path
       d="m 384,0 h 768 V 384 H 384 V 0 z m 896,0 h 128 v 896 q 0,14 -10,38.5 -10,24.5 -20,34.5 l -281,281 q -10,10 -34,20 -24,10 -39,10 V 864 q 0,-40 -28,-68 -28,-28 -68,-28 H 352 q -40,0 -68,28 -28,28 -28,68 v 416 H 128 V 0 h 128 v 416 q 0,40 28,68 28,28 68,28 h 832 q 40,0 68,-28 28,-28 28,-68 V 0 z M 896,928 v 320 q 0,13 -9.5,22.5 -9.5,9.5 -22.5,9.5 H 672 q -13,0 -22.5,-9.5 Q 640,1261 640,1248 V 928 q 0,-13 9.5,-22.5 Q 659,896 672,896 h 192 q 13,0 22.5,9.5 9.5,9.5 9.5,22.5 z m 640,-32 V -32 q 0,-40 -28,-68 -28,-28 -68,-28 H 96 q -40,0 -68,28 -28,28 -28,68 v 1344 q 0,40 28,68 28,28 68,28 h 928 q 40,0 88,-20 48,-20 76,-48 l 280,-280 q 28,-28 48,-76 20,-48 20,-88 z"
       style="fill:currentColor" />
  </g>
</svg>
