<?xml version="1.0" ?>
<!DOCTYPE svg  PUBLIC '-//W3C//DTD SVG 1.1//EN'  'http://www.w3.org/Graphics/SVG/1.1/DTD/svg11.dtd'>
<svg
enable-background="new 0 0 100 100"
height="100%"
id="Layer_1"
version="1.1"
viewBox="3.5 3.5 25 25"
width="100%"
xml:space="preserve"
xmlns="http://www.w3.org/2000/svg"
xmlns:xlink="http://www.w3.org/1999/xlink">
<path d="M20.377,16.519l6.567-6.566c0.962-0.963,0.962-2.539,0-3.502l-0.876-0.875c-0.963-0.964-2.539-0.964-3.501,0  L16,12.142L9.433,5.575c-0.962-0.963-2.538-0.963-3.501,0L5.056,6.45c-0.962,0.963-0.962,2.539,0,3.502l6.566,6.566l-6.566,6.567  c-0.962,0.963-0.962,2.538,0,3.501l0.876,0.876c0.963,0.963,2.539,0.963,3.501,0L16,20.896l6.567,6.566  c0.962,0.963,2.538,0.963,3.501,0l0.876-0.876c0.962-0.963,0.962-2.538,0-3.501L20.377,16.519z" fill="#000000"/></svg>